<?xml version="1.0" encoding="UTF-8" standalone="no"?>
<svg
   xmlns:dc="http://purl.org/dc/elements/1.1/"
   xmlns:cc="http://creativecommons.org/ns#"
   xmlns:rdf="http://www.w3.org/1999/02/22-rdf-syntax-ns#"
   xmlns:svg="http://www.w3.org/2000/svg"
   xmlns="http://www.w3.org/2000/svg"
   width="371.12207"
   height="98.257439"
   viewBox="0 0 98.19271 25.997281"
   version="1.1"
   id="svg180">
  <defs
     id="defs174">
    <linearGradient
       id="g__egalme630_207"
       x1="0"
       y1="436.09119"
       x2="35.719749"
       y2="436.09119"
       gradientTransform="matrix(1.8741667,0,0,0.03386874,-299.8442,-65.863818)"
       gradientUnits="userSpaceOnUse">
      <stop
         id="_egalme630_281"
         offset="0%"
         style="stop-color: rgb(255, 255, 255); stop-opacity: 0;" />
      <stop
         id="_egalme630_282"
         offset="100%"
         style="stop-color: rgb(33, 92, 148); stop-opacity: 1;" />
    </linearGradient>
  </defs>
  <metadata
     id="metadata177">
    <rdf:RDF>
      <cc:Work
         rdf:about="">
        <dc:format>image/svg+xml</dc:format>
        <dc:type
           rdf:resource="http://purl.org/dc/dcmitype/StillImage" />
        <dc:title></dc:title>
      </cc:Work>
    </rdf:RDF>
  </metadata>
  <g
     id="layer1"
     transform="translate(-58.956223,-108.42322)">
    <g
       id="g207"
       transform="translate(362.05256,180.38614)">
      <path
         id="_8h9xgdHpaO6m3P0fih8SS"
         d="m -254.44246,-61.883383 -2.0576,-5.641641 c 0.20291,-0.08914 0.34517,-0.291317 0.34517,-0.526577 0,-0.09576 -0.0776,-0.173321 -0.17314,-0.173321 -0.0956,0 -0.17277,0.07756 -0.17277,0.173321 0,0.08565 -0.0498,0.157514 -0.11892,0.196846 l -0.0121,-0.03529 c -0.0342,-0.09208 -0.1849,-0.09171 -0.21836,0 l -0.008,0.02261 c -0.059,-0.04154 -0.1,-0.106602 -0.1,-0.184164 v -0.17332 h -4.72726 v -0.33451 h -0.39679 l 0.40898,-0.53687 -0.60028,-1.543709 -0.60047,1.543525 0.40895,0.536871 h -0.39663 v 0.33451 h -4.72597 v 0.17332 c 0,0.07738 -0.041,0.142626 -0.0998,0.183981 l -0.008,-0.02261 c -0.0167,-0.04577 -0.0603,-0.07646 -0.10918,-0.07646 -0.0489,0 -0.0924,0.03051 -0.10917,0.07646 l -0.0129,0.03547 c -0.0697,-0.03933 -0.11892,-0.111197 -0.11892,-0.196847 0,-0.09576 -0.0776,-0.17332 -0.17332,-0.17332 -0.0958,0 -0.17331,0.07756 -0.17331,0.17332 0,0.235444 0.14225,0.43762 0.34517,0.526762 l -2.05761,5.641641 h -0.43946 c 0,0.74695 1.22298,1.353294 2.73177,1.353294 1.50897,0 2.73214,-0.606344 2.73214,-1.353294 h -0.42473 l -2.06092,-5.65175 c 0.14098,-0.06856 0.25052,-0.192252 0.29849,-0.3437 h 4.40597 v 0.33451 h 0.23821 v 9.289271 h -0.31283 v 0.608918 h -1.14579 c -0.56278,0 -1.01897,0.456 -1.01897,1.018969 v 0.111014 h -0.78426 v 0.792347 h 0.78426 5.65525 0.78444 v -0.792347 h -0.78444 v -0.111014 c 0,-0.562969 -0.45619,-1.018969 -1.01916,-1.018969 h -1.14578 v -0.608918 h -0.31264 v -9.289272 h 0.23801 v -0.33451 h 4.4058 c 0.048,0.151448 0.15732,0.275143 0.29867,0.3437 l -2.06092,5.651749 h -0.42494 c 0,0.74695 1.22262,1.353295 2.73214,1.353295 1.50898,1.84e-4 2.73196,-0.605609 2.73196,-1.353295 z m -13.47892,-5.309152 v 5.309152 h -1.93666 z m 0.23232,5.309152 v -5.309152 l 1.93612,5.309152 z m 11.0631,-5.309152 1.93666,5.309152 h -1.93666 z m -0.23269,0 v 5.309152 h -1.9363 z"
         stroke="none"
         fill="#092947"
         style="overflow:hidden;stroke-width:0.183797" />
      <path
         text="wa"
         text-anchor="middle"
         font-size="100px"
         letter-spacing="0"
         side="left"
         offset="0.5"
         dx="0"
         dy="0"
         space="preserve"
         href=""
         font-family="Cinzel"
         font-scale="contain"
         x="0"
         y="0"
         fill="#092947"
         data-fl-textpath=""
         id="_egabm7ccd_6"
         font-weight="700"
         font-style="normal"
         d="m -295.50865,-55.744902 -4.93583,-12.761458 h 3.26946 l 2.8476,7.509222 z m 4.32413,-13.183324 h 0.16875 l 0.37968,1.940585 -4.19757,9.112313 q 0,0 -0.11602,0.3164 -0.11601,0.3164 -0.24257,0.801546 -0.12656,0.485147 -0.12656,1.01248 v 0 h -0.18984 l -0.56952,-2.341359 z m -1.22341,4.049917 1.39216,-4.049917 4.13429,8.33186 -0.99139,4.851464 z m 7.17173,-3.628051 h 1.34997 l -3.4593,10.631032 q 0,0 -0.0949,0.337493 -0.0949,0.337494 -0.1793,0.833187 -0.0844,0.495693 -0.0633,0.959746 v 0 h -0.18984 l -0.56952,-1.898399 z m 0.9492,1.244506 h -1.32888 q 0.16875,-0.611706 -0.0738,-0.88592 -0.24257,-0.274213 -0.60116,-0.274213 v 0 h -0.16875 v -0.210933 h 3.96555 v 0.210933 q 0,0 -0.0738,0 -0.0738,0 -0.0738,0 v 0 q -0.48515,0 -0.97029,0.28476 -0.48515,0.28476 -0.67499,0.875373 z m -12.40287,0 v 0 h -3.26947 q -0.23203,-0.590613 -0.67498,-0.875373 -0.44296,-0.28476 -0.9703,-0.28476 v 0 q 0,0 -0.0844,0 -0.0844,0 -0.0844,0 v 0 -0.210933 h 5.92722 v 0.210933 h -0.18984 q -0.33749,0 -0.60116,0.274213 -0.26367,0.274214 -0.0527,0.88592 z m 17.52854,1.919492 1.24451,-3.860077 6.24362,13.120044 h -3.56477 z m -4.23975,7.973274 h 1.51872 q -0.23203,0.56952 0.0633,0.875373 0.2953,0.305853 0.65389,0.305853 v 0 h 0.16875 v 0.210933 h -4.21867 v -0.210933 q 0,0 0.0844,0 0.0844,0 0.0844,0 v 0 q 0.42187,0 0.88592,-0.263666 0.46405,-0.263667 0.75936,-0.91756 z m 5.31551,-11.833351 h 0.16875 l 0.0422,2.531198 -4.57725,10.631032 h -1.56091 l 4.93584,-10.609939 q 0.0422,-0.12656 0.18984,-0.453506 0.14765,-0.326947 0.3164,-0.738267 0.16874,-0.411319 0.3164,-0.780452 0.14765,-0.369133 0.16874,-0.580066 z m -3.37493,9.09122 h 5.3788 v 0.822639 h -5.3788 z m 5.6952,2.742131 v 0 h 3.4804 q 0.3164,0.653893 0.78045,0.91756 0.46405,0.263666 0.88592,0.263666 v 0 q 0,0 0.0844,0 0.0844,0 0.0844,0 v 0 0.210933 h -6.20144 v -0.210933 h 0.16875 q 0.35859,0 0.65389,-0.305853 0.29531,-0.305853 0.0633,-0.875373 z"
         style="overflow:hidden;stroke-width:0.210933" />
      <path
         text="heia"
         text-anchor="middle"
         font-size="100px"
         letter-spacing="0"
         side="left"
         offset="0.5"
         dx="0"
         dy="0"
         space="preserve"
         href=""
         font-family="Cinzel"
         font-scale="contain"
         x="0"
         y="0"
         fill="#092947"
         data-fl-textpath=""
         id="_egabm7ccd_13"
         font-weight="700"
         font-style="normal"
         d="m -244.65866,-68.379798 h 3.01634 v 12.655991 h -3.01634 z m -8.60608,0 h 3.03744 v 12.655991 h -3.03744 z m 2.8476,5.927222 h 5.92722 v 0.843733 h -5.92722 z m -2.8476,5.39989 h 0.0633 v 1.328879 h -1.45545 v -0.210934 q 0,0 0.11602,0 0.11601,0 0.13711,0 v 0 q 0.46405,0 0.80154,-0.326946 0.33749,-0.326946 0.33749,-0.790999 z m 2.99525,1.328879 v -1.328879 h 0.0422 q 0.0211,0.464053 0.35859,0.790999 0.33749,0.326946 0.80155,0.326946 v 0 q 0,0 0.11601,0 0.11601,0 0.11601,0 v 0 0.210934 z m 0.0422,-11.327112 h -0.0422 v -1.328879 h 1.43435 v 0.210933 q 0,0 -0.11601,0 -0.11602,0 -0.11602,0 v 0 q -0.46405,0 -0.80154,0.3164 -0.33749,0.316399 -0.35859,0.801546 z m -2.97415,-1.328879 v 1.328879 h -0.0633 q 0,-0.485147 -0.33749,-0.801546 -0.33749,-0.3164 -0.80154,-0.3164 v 0 q -0.0211,0 -0.13711,0 -0.11602,0 -0.11602,0 v 0 -0.210933 z m 8.5217,11.327112 h 0.0633 v 1.328879 h -1.43435 v -0.210934 q 0,0 0.11601,0 0.11602,0 0.11602,0 v 0 q 0.46405,0 0.80154,-0.326946 0.33749,-0.326946 0.33749,-0.790999 z m 2.97415,1.328879 v -1.328879 h 0.0633 q 0.0211,0.464053 0.34804,0.790999 0.32695,0.326946 0.8121,0.326946 v 0 q 0,0 0.11601,0 0.11601,0 0.11601,0 v 0 0.210934 z m 0.0844,-11.327112 h -0.0633 v -1.328879 h 1.43434 v 0.210933 q 0,0 -0.11601,0 -0.11601,0 -0.11601,0 v 0 q -0.48515,0 -0.8121,0.3164 -0.32694,0.316399 -0.32694,0.801546 z m -2.99525,-1.328879 v 1.328879 h -0.0633 q 0,-0.485147 -0.3375,-0.801546 -0.33749,-0.3164 -0.80154,-0.3164 v 0 q 0,0 -0.11602,0 -0.11601,0 -0.11601,0 v 0 -0.210933 z m 7.08735,0 h 3.03744 v 12.655991 h -3.03744 z m 2.99525,11.812258 h 4.97802 l 0.48515,0.843733 h -5.46317 z m 0,-5.842849 h 4.26085 v 0.843733 h -4.26085 z m 0,-5.969409 h 5.21005 v 0.843732 h -5.21005 z m 6.13816,8.77482 h 0.18984 l -0.80155,3.881171 h -3.64914 l 0.65389,-0.843733 q 0.90701,0 1.61364,-0.369133 0.70662,-0.369133 1.21286,-1.054666 0.50624,-0.685533 0.78046,-1.613639 z m -3.69133,-2.003865 h 1.81402 v 1.856212 h -0.21093 v -0.168747 q 0,-0.696079 -0.43241,-1.170679 -0.43242,-0.474599 -1.17068,-0.474599 v 0 z m 1.60309,-2.615571 h 0.21093 v 1.856212 h -1.81402 v -0.04219 q 0.73826,-0.02109 1.17067,-0.495693 0.43242,-0.4746 0.43242,-1.17068 v 0 z m -0.9703,-3.353838 h 2.13043 v 2.235892 h -0.21093 v -0.18984 q 0,-0.928106 -0.4957,-1.455439 -0.49569,-0.527333 -1.4238,-0.548427 v 0 z m 2.13043,-1.117946 v 0 0.50624 l -2.2148,-0.18984 q 0.61171,0 1.28669,-0.116014 0.67499,-0.116013 0.92811,-0.200386 z m -8.2053,11.643512 h 0.0633 l 0.0844,1.328879 h -1.5609 v -0.210934 q 0,0 0.12656,0 0.12656,0 0.14765,0 v 0 q 0.46405,0 0.80154,-0.326946 0.3375,-0.326946 0.3375,-0.790999 z m 0.14765,-11.327112 -0.0844,1.328879 h -0.0633 q 0,-0.485147 -0.33749,-0.801546 -0.33749,-0.3164 -0.80155,-0.3164 v 0 q -0.0211,0 -0.14765,0 -0.12656,0 -0.12656,0 v 0 -0.210933 z m 11.72789,0 h 3.03743 v 12.655991 h -3.03743 z m 0,11.327112 h 0.0633 v 1.328879 h -1.53981 v -0.210934 q 0,0 0.12656,0 0.12655,0 0.14765,0 v 0 q 0.48514,0 0.84373,-0.326946 0.35859,-0.326946 0.35859,-0.790999 z m 2.99525,1.328879 v -1.328879 h 0.0422 q 0.0211,0.464053 0.36913,0.790999 0.34804,0.326946 0.85429,0.326946 v 0 q 0,0 0.11601,0 0.11601,0 0.1371,0 v 0 0.210934 z m 0.0422,-11.327112 h -0.0422 v -1.328879 h 1.51872 l -0.0211,0.210933 q 0,0 -0.10547,0 -0.10546,0 -0.12656,0 v 0 q -0.50624,0 -0.85428,0.3164 -0.34804,0.316399 -0.36913,0.801546 z m -2.97416,-1.328879 v 1.328879 h -0.0633 q 0,-0.485147 -0.35858,-0.801546 -0.35859,-0.3164 -0.86483,-0.3164 v 0 q 0,0 -0.12656,0 -0.12656,0 -0.12656,0 v 0 -0.210933 z m 10.65213,3.290557 1.24451,-3.860077 6.24362,13.120044 h -3.56477 z m -4.23976,7.973275 h 1.51872 q -0.23202,0.569519 0.0633,0.875372 0.29531,0.305853 0.65389,0.305853 v 0 h 0.16875 v 0.210934 h -4.21867 v -0.210934 q 0,0 0.0844,0 0.0844,0 0.0844,0 v 0 q 0.42187,0 0.88592,-0.263666 0.46406,-0.263666 0.75936,-0.917559 z m 5.31551,-11.833352 h 0.16875 l 0.0422,2.531198 -4.57725,10.631033 h -1.56091 l 4.93584,-10.609939 q 0.0422,-0.12656 0.18984,-0.453507 0.14765,-0.326946 0.3164,-0.738266 0.16874,-0.41132 0.3164,-0.780453 0.14765,-0.369133 0.16874,-0.580066 z m -3.37493,9.09122 h 5.3788 v 0.82264 h -5.3788 z m 5.6952,2.742132 v 0 h 3.4804 q 0.31639,0.653893 0.78045,0.917559 0.46405,0.263666 0.88592,0.263666 v 0 q 0,0 0.0844,0 0.0844,0 0.0844,0 v 0 0.210934 h -6.20143 v -0.210934 h 0.16875 q 0.35858,0 0.65389,-0.305853 0.2953,-0.305853 0.0633,-0.875372 z"
         style="overflow:hidden;stroke-width:0.210933" />
      <path
         text="LABS"
         text-anchor="middle"
         font-size="100px"
         letter-spacing="0"
         side="left"
         offset="0.5"
         dx="0"
         dy="0"
         space="preserve"
         href=""
         font-family="Changa"
         font-scale="contain"
         x="0"
         y="0"
         fill="#215c94"
         data-fl-textpath=""
         id="_G2UnaD0LYgWzL0iW5Eo8Y"
         font-weight="700"
         font-style="normal"
         d="m -226.08444,-47.462854 h -4.35733 v -7.262216 h 2.04504 v 5.577382 h 2.31229 z m 1.73131,0 h -2.04504 l 1.92885,-7.262216 h 3.17213 l 1.92885,7.262216 h -2.04504 l -1.41759,-5.310132 h -0.10457 z m 3.69502,-1.26653 h -4.45029 v -1.498922 h 4.45029 z m 2.06828,1.26653 v -7.262216 h 3.17213 q 1.22005,0 1.76036,0.447353 0.54031,0.447352 0.54031,1.446633 v 0 q 0,0.534499 -0.20334,0.976042 -0.20334,0.441543 -0.57517,0.662314 v 0 0.06972 q 0.49964,0.139435 0.81918,0.586787 0.31954,0.447353 0.31954,1.02833 v 0 q 0,0.987661 -0.58098,1.516351 -0.58098,0.528689 -1.68483,0.528689 v 0 z m 2.04504,-6.623141 v 5.984066 l -0.84823,-0.848227 h 1.91723 q 0.34858,0 0.48802,-0.168483 0.13943,-0.168484 0.13943,-0.586787 v 0 q 0,-0.395065 -0.13362,-0.557738 -0.13363,-0.162674 -0.48221,-0.162674 v 0 h -1.26654 v -1.429204 h 0.97605 q 0.34858,0 0.47059,-0.145244 0.122,-0.145245 0.122,-0.551929 v 0 q 0,-0.406684 -0.11619,-0.546118 -0.1162,-0.139435 -0.46478,-0.139435 v 0 h -1.64998 z m 4.4619,6.413989 0.29049,-1.684834 q 0.56936,0.174293 1.16196,0.26144 0.59259,0.08715 1.17357,0.08715 v 0 q 0.30211,0 0.5345,-0.01162 0.23239,-0.01162 0.49964,-0.0581 v 0 -0.999281 l -1.05738,-0.09296 q -0.69717,-0.0581 -1.17939,-0.203342 -0.48221,-0.145244 -0.77269,-0.406684 -0.29049,-0.26144 -0.41831,-0.650695 -0.12781,-0.389254 -0.12781,-0.946992 v 0 q 0,-0.929564 0.25563,-1.481492 0.25563,-0.551929 0.85984,-0.795939 0.60422,-0.244011 1.61512,-0.244011 v 0 q 1.37111,0 2.63764,0.313728 v 0 l -0.25563,1.638356 q -0.58098,-0.116196 -1.02252,-0.168484 -0.44154,-0.05229 -0.91795,-0.05229 v 0 q -0.34858,0 -0.54611,0.01162 -0.19754,0.01162 -0.42993,0.04648 v 0 0.999281 l 0.95281,0.08134 q 0.92956,0.08134 1.50473,0.348586 0.57516,0.267249 0.8366,0.749461 0.26144,0.482211 0.26144,1.237481 v 0 q 0,0.848227 -0.30792,1.376916 -0.30791,0.528689 -0.96442,0.77851 -0.6565,0.24982 -1.71388,0.24982 v 0 q -0.77851,0 -1.49311,-0.09296 -0.7146,-0.09296 -1.37692,-0.290488 z"
         style="overflow:hidden;stroke-width:0.116195" />
      <rect
         id="_1EgO_5PAY9bbzJquBw9NH"
         y="-51.698849"
         width="66.944771"
         height="1.2097828"
         stroke="none"
         fill="url(#g__egalme630_207)"
         style="overflow:hidden;fill:url(#g__egalme630_207);stroke-width:0.251944"
         x="-299.84421" />
    </g>
  </g>
</svg>
